<svg width="28" height="28" viewBox="0 0 28 28" fill="none" xmlns="http://www.w3.org/2000/svg">
<path fill-rule="evenodd" clip-rule="evenodd" d="M14 28C21.7322 28 28 21.7322 28 14C28 6.2678 21.7322 0 14 0C6.2678 0 0 6.2678 0 14C0 21.7322 6.2678 28 14 28ZM14 25.2C16.9704 25.2 19.8192 24.02 21.9196 21.9196C24.02 19.8192 25.2 16.9704 25.2 14C25.2 11.0296 24.02 8.18081 21.9196 6.0804C19.8192 3.98 16.9704 2.8 14 2.8C11.0296 2.8 8.18081 3.98 6.0804 6.0804C3.98 8.18081 2.8 11.0296 2.8 14C2.8 16.9704 3.98 19.8192 6.0804 21.9196C8.18081 24.02 11.0296 25.2 14 25.2ZM20.524 8.7514C20.2447 8.50735 19.8799 8.38414 19.5098 8.40881C19.1397 8.43349 18.7945 8.60403 18.55 8.883L12.2262 16.1042L9.4318 13.055C9.17756 12.7961 8.83271 12.646 8.46995 12.6363C8.10719 12.6267 7.75487 12.7583 7.48727 13.0034C7.21966 13.2485 7.05767 13.588 7.03546 13.9502C7.01325 14.3124 7.13255 14.669 7.3682 14.945L10.6904 18.571C11.0664 18.9818 11.5901 19.2264 12.1464 19.2511C12.7028 19.2758 13.2461 19.0785 13.657 18.7026L13.741 18.6214L13.818 18.5374L20.6556 10.7268C20.8998 10.4476 21.0233 10.083 20.9989 9.71287C20.9744 9.34276 20.8042 8.99747 20.5254 8.7528L20.524 8.7514Z" fill="#1E1E1E"/>
</svg>
