<svg width="28" height="28" viewBox="0 0 28 28" fill="none" xmlns="http://www.w3.org/2000/svg">
<path fill-rule="evenodd" clip-rule="evenodd" d="M24.7178 17.1111H18.9856C18.3213 17.1111 17.906 17.1407 17.6633 17.1873C17.5899 17.1985 17.5195 17.2244 17.4564 17.2636C17.3722 17.3047 17.3038 17.3725 17.262 17.4564C17.2232 17.5201 17.1978 17.591 17.1873 17.6649C17.1407 17.906 17.1096 18.3213 17.1096 18.9856V24.7162C17.3211 24.6431 17.5233 24.5467 17.7162 24.43C17.9558 24.2822 18.2016 24.0644 19.3822 22.8838L22.8838 19.3838C24.066 18.2016 24.2838 17.9558 24.43 17.7147C24.5473 17.5244 24.6438 17.3221 24.7178 17.1111ZM14 24.8889H6.22222C5.082 24.8889 4.41311 24.8858 3.92 24.8469C3.78184 24.8382 3.64455 24.819 3.50933 24.7893C3.38413 24.7192 3.28077 24.6159 3.21067 24.4907C3.18087 24.3549 3.16163 24.2171 3.15311 24.0784C3.11422 23.5869 3.11111 22.918 3.11111 21.7778V6.22222C3.11111 5.082 3.11422 4.41311 3.15311 3.92C3.17333 3.67111 3.19978 3.55133 3.21067 3.50933C3.28077 3.38413 3.38413 3.28077 3.50933 3.21067C3.55133 3.19978 3.67267 3.17333 3.92156 3.15311C4.41311 3.11422 5.082 3.11111 6.22222 3.11111H21.7778C22.918 3.11111 23.5869 3.11422 24.08 3.15311C24.3289 3.17333 24.4487 3.19978 24.4907 3.21067C24.6159 3.28077 24.7192 3.38413 24.7893 3.50933C24.8002 3.55133 24.8251 3.67267 24.8469 3.92156C24.8858 4.41311 24.8889 5.082 24.8889 6.22222V14H18.9856C17.2527 14 16.6227 14.1804 15.9896 14.5196C15.3633 14.8511 14.8511 15.3633 14.5196 15.9896C14.1804 16.6227 14 17.2527 14 18.9856V24.8889ZM21.7778 0C23.9556 0 25.0444 8.9407e-08 25.8767 0.423111C26.6082 0.796281 27.2028 1.39145 27.5753 2.12333C28 2.95556 28 4.04444 28 6.22222V14.5429C28 16.0642 28 16.8264 27.8289 17.542C27.6749 18.1767 27.4244 18.7833 27.0822 19.3402C26.698 19.9687 26.1598 20.5069 25.0833 21.5833L21.5833 25.0833C20.5069 26.1598 19.9687 26.698 19.3402 27.0838C18.7833 27.4244 18.1767 27.6749 17.542 27.8289C16.8264 28 16.0642 28 14.5429 28H6.22222C4.04444 28 2.95556 28 2.12333 27.5753C1.39145 27.2028 0.796281 26.6082 0.423111 25.8767C8.9407e-08 25.0444 0 23.9556 0 21.7778V6.22222C0 4.04444 8.9407e-08 2.95556 0.423111 2.12333C0.796017 1.39122 1.39122 0.796017 2.12333 0.423111C2.95556 8.9407e-08 4.04444 0 6.22222 0H21.7778Z" fill="#1E1E1E"/>
<path fill-rule="evenodd" clip-rule="evenodd" d="M6.22222 7.77778C6.22222 6.91867 6.91867 6.22222 7.77778 6.22222H20.2222C21.0813 6.22222 21.7778 6.91867 21.7778 7.77778C21.7778 8.63689 21.0813 9.33333 20.2222 9.33333H7.77778C6.91867 9.33333 6.22222 8.63689 6.22222 7.77778Z" fill="#1E1E1E"/>
</svg>
