<svg width="386" height="14" viewBox="0 0 386 14" fill="none" xmlns="http://www.w3.org/2000/svg">
<path d="M0.543147 7C0.543146 10.566 3.43398 13.4569 7 13.4569C10.566 13.4569 13.4569 10.566 13.4569 7C13.4569 3.43398 10.566 0.543147 7 0.543147C3.43398 0.543146 0.543147 3.43398 0.543147 7ZM372.543 7.00003C372.543 10.5661 375.434 13.4569 379 13.4569C382.566 13.4569 385.457 10.5661 385.457 7.00003C385.457 3.43401 382.566 0.543179 379 0.543179C375.434 0.543179 372.543 3.43401 372.543 7.00003ZM7 8.21066L379 8.21069L379 5.78937L7 5.78934L7 8.21066Z" fill="#6D96CE"/>
</svg>
