<svg width="22" height="810" viewBox="0 0 22 810" fill="none" xmlns="http://www.w3.org/2000/svg">
<path d="M11 0.333333C5.10896 0.333333 0.333333 5.10896 0.333333 11C0.333333 16.891 5.10896 21.6667 11 21.6667C16.891 21.6667 21.6667 16.891 21.6667 11C21.6667 5.10896 16.891 0.333333 11 0.333333ZM11 788.333C5.10893 788.333 0.333299 793.109 0.333299 799C0.333298 804.891 5.10893 809.667 11 809.667C16.891 809.667 21.6666 804.891 21.6666 799C21.6666 793.109 16.891 788.333 11 788.333ZM9 11L8.99997 799L13 799L13 11L9 11Z" fill="#6D96CE"/>
</svg>
