<svg width="354" height="269" viewBox="0 0 354 269" fill="none" xmlns="http://www.w3.org/2000/svg">
<path fill-rule="evenodd" clip-rule="evenodd" d="M172.215 9.29047C215.349 9.29047 233.526 40.1594 264.651 64.1439C305.872 95.9012 347.076 75.2308 353.67 182.512C359.547 277.989 286.261 192.847 182.926 227.047C79.5909 261.247 -25.6403 275.016 5.58741 164.353C36.8322 53.6891 72.0061 9.29047 172.215 9.29047Z" fill="#E0E8F5"/>
<path fill-rule="evenodd" clip-rule="evenodd" d="M138.049 73.5054H80.2571C80.6671 71.7458 82.2559 70.4475 84.135 70.4475C84.2204 70.4475 84.3229 70.4475 84.4083 70.4646C85.3137 68.2267 87.5174 66.6551 90.0799 66.6551C91.2073 66.6551 92.2494 66.9626 93.1548 67.4751C94.2652 63.8364 97.6305 61.1886 101.628 61.1886C102.448 61.1886 103.234 61.2911 103.968 61.496C105.899 57.2253 110.204 54.2529 115.192 54.2529C121.103 54.2529 126.057 58.4382 127.235 64.0072C127.338 64.0072 127.44 64.0072 127.543 64.0072C131.335 64.0072 134.461 66.843 134.923 70.5159C136.46 70.7892 137.69 71.985 138.049 73.5054Z" fill="white"/>
<path fill-rule="evenodd" clip-rule="evenodd" d="M312.637 124.259H238.053C238.582 121.987 240.632 120.313 243.058 120.313C243.177 120.313 243.297 120.313 243.4 120.33C244.578 117.443 247.414 115.41 250.711 115.41C252.163 115.41 253.513 115.803 254.674 116.469C256.092 111.788 260.448 108.372 265.607 108.372C266.65 108.372 267.674 108.508 268.631 108.782C271.125 103.281 276.677 99.4374 283.118 99.4374C290.754 99.4374 297.126 104.836 298.663 112.01C298.8 112.01 298.919 111.993 299.056 111.993C303.942 111.993 307.99 115.649 308.588 120.381C310.587 120.774 312.176 122.294 312.637 124.259Z" fill="white"/>
<path fill-rule="evenodd" clip-rule="evenodd" d="M93.9748 150.311H37.2593C37.6693 148.585 39.2067 147.304 41.0688 147.304C41.1542 147.304 41.2396 147.304 41.3421 147.321C42.2304 145.134 44.4 143.58 46.9112 143.58C48.0045 143.58 49.0465 143.87 49.9349 144.4C51.0111 140.829 54.3252 138.233 58.2543 138.233C59.0572 138.233 59.8259 138.335 60.5605 138.54C62.4567 134.355 66.6762 131.434 71.579 131.434C77.3872 131.434 82.2388 135.534 83.4004 141C83.5029 141 83.5883 141 83.6908 141C87.4149 141 90.4898 143.785 90.934 147.389C92.4202 147.646 93.6331 148.807 93.9748 150.311Z" fill="white"/>
<path fill-rule="evenodd" clip-rule="evenodd" d="M352.577 218.54C352.577 246.283 330.096 268.764 302.353 268.764C274.61 268.764 252.129 246.283 252.129 218.54C252.129 190.797 274.61 168.316 302.353 168.316C330.096 168.316 352.577 190.814 352.577 218.54Z" fill="#B0C2E4"/>
<path fill-rule="evenodd" clip-rule="evenodd" d="M261.832 248.213C300.303 247.683 331.633 217.72 334.349 179.83C325.654 172.638 314.516 168.316 302.37 168.316C274.627 168.316 252.146 190.797 252.146 218.54C252.146 229.644 255.751 239.894 261.832 248.213Z" fill="#C4D1EB"/>
<path fill-rule="evenodd" clip-rule="evenodd" d="M302.37 172.758C315.011 172.758 326.457 177.882 334.742 186.168C343.028 194.453 348.152 205.899 348.152 218.54C348.152 231.181 343.028 242.627 334.742 250.912C326.457 259.197 315.011 264.322 302.37 264.322C289.729 264.322 278.283 259.197 269.998 250.912C261.713 242.627 256.588 231.181 256.588 218.54C256.588 205.899 261.713 194.453 269.998 186.168C278.266 177.882 289.712 172.758 302.37 172.758ZM332.351 188.559C324.68 180.889 314.072 176.14 302.353 176.14C290.634 176.14 280.026 180.889 272.355 188.559C264.685 196.23 259.936 206.838 259.936 218.557C259.936 230.276 264.685 240.884 272.355 248.555C280.026 256.225 290.634 260.974 302.353 260.974C314.072 260.974 324.68 256.225 332.351 248.555C340.021 240.884 344.77 230.276 344.77 218.557C344.787 206.838 340.038 196.23 332.351 188.559Z" fill="#8FA3CF"/>
<path fill-rule="evenodd" clip-rule="evenodd" d="M286.568 199.236C289.626 199.236 292.086 202.311 292.086 206.104C292.086 209.896 289.609 212.971 286.568 212.971C283.528 212.971 281.05 209.896 281.05 206.104C281.05 202.311 283.528 199.236 286.568 199.236ZM318.155 199.236C321.196 199.236 323.673 202.311 323.673 206.104C323.673 209.896 321.196 212.971 318.155 212.971C315.114 212.971 312.637 209.896 312.637 206.104C312.62 202.311 315.097 199.236 318.155 199.236Z" fill="#859AC6"/>
<path fill-rule="evenodd" clip-rule="evenodd" d="M277.993 232.668C277.258 231.489 277.617 229.934 278.796 229.2C279.974 228.465 281.529 228.824 282.28 230.003C284.57 233.658 287.44 236.443 290.617 238.373C294.409 240.662 298.68 241.756 302.968 241.653C307.256 241.551 311.595 240.269 315.507 237.827C319.111 235.572 322.374 232.326 324.903 228.123C325.62 226.928 327.175 226.552 328.37 227.269C329.566 227.987 329.942 229.541 329.224 230.737C326.269 235.64 322.425 239.449 318.172 242.114C313.491 245.036 308.281 246.573 303.07 246.693C297.843 246.812 292.65 245.497 288.02 242.695C284.177 240.389 280.726 237.041 277.993 232.668Z" fill="#859AC6"/>
<path fill-rule="evenodd" clip-rule="evenodd" d="M119.104 218.54C119.104 246.283 96.6226 268.764 68.8798 268.764C41.1371 268.764 18.6559 246.283 18.6559 218.54C18.6559 190.797 41.1371 168.316 68.8798 168.316C96.6226 168.316 119.104 190.814 119.104 218.54Z" fill="#B0C2E4"/>
<path fill-rule="evenodd" clip-rule="evenodd" d="M28.359 248.213C66.8128 247.683 98.1601 217.72 100.876 179.83C92.181 172.638 81.0429 168.316 68.8798 168.316C41.1371 168.316 18.6559 190.797 18.6559 218.54C18.673 229.644 22.2775 239.894 28.359 248.213Z" fill="#C4D1EB"/>
<path fill-rule="evenodd" clip-rule="evenodd" d="M68.8799 172.758C81.5213 172.758 92.9669 177.882 101.252 186.168C109.537 194.453 114.662 205.899 114.662 218.54C114.662 231.181 109.537 242.627 101.252 250.912C92.9839 259.214 81.5384 264.339 68.8799 264.339C56.2214 264.339 44.7929 259.214 36.5076 250.929C28.2224 242.644 23.0975 231.198 23.0975 218.557C23.0975 205.916 28.2224 194.47 36.5076 186.185C44.7929 177.882 56.2385 172.758 68.8799 172.758ZM98.8776 188.559C91.2073 180.889 80.5988 176.14 68.8799 176.14C57.1609 176.14 46.5695 180.889 38.8821 188.559C31.2119 196.23 26.4628 206.838 26.4628 218.557C26.4628 230.276 31.2119 240.884 38.8821 248.555C46.5524 256.225 57.1609 260.974 68.8799 260.974C80.5988 260.974 91.2073 256.225 98.8776 248.555C106.548 240.884 111.297 230.276 111.297 218.557C111.314 206.838 106.565 196.23 98.8776 188.559Z" fill="#8FA3CF"/>
<path fill-rule="evenodd" clip-rule="evenodd" d="M53.0952 199.236C56.136 199.236 58.613 202.311 58.613 206.104C58.613 209.896 56.136 212.971 53.0952 212.971C50.0544 212.971 47.5774 209.896 47.5774 206.104C47.5774 202.311 50.0544 199.236 53.0952 199.236ZM84.6816 199.236C87.7395 199.236 90.1994 202.311 90.1994 206.104C90.1994 209.896 87.7224 212.971 84.6816 212.971C81.6409 212.971 79.1638 209.896 79.1638 206.104C79.1467 202.311 81.6238 199.236 84.6816 199.236Z" fill="#859AC6"/>
<path fill-rule="evenodd" clip-rule="evenodd" d="M44.5196 240.953C43.785 242.132 44.1437 243.686 45.3225 244.421C46.5012 245.155 48.0557 244.796 48.8074 243.618C51.0965 239.945 53.9665 237.16 57.1439 235.247C60.9534 232.958 65.2071 231.865 69.4949 231.967C73.7827 232.07 78.1218 233.351 82.0338 235.794C85.6383 238.049 88.9012 241.294 91.4294 245.497C92.1469 246.693 93.7015 247.069 94.8973 246.351C96.0931 245.634 96.4689 244.079 95.7514 242.883C92.7961 237.98 88.9695 234.171 84.6987 231.506C80.018 228.585 74.8077 227.047 69.5974 226.928C64.37 226.808 59.1768 228.123 54.5473 230.925C50.6865 233.248 47.2528 236.58 44.5196 240.953Z" fill="#859AC6"/>
<path fill-rule="evenodd" clip-rule="evenodd" d="M65.5145 168.026C64.6091 167.838 64.0283 166.949 64.2162 166.044C64.4041 165.139 65.2924 164.558 66.1978 164.746C109.401 173.783 150.656 178.292 189.947 178.275C229.204 178.258 266.547 173.731 301.96 164.66C302.865 164.438 303.771 164.968 304.01 165.873C304.249 166.779 303.685 167.684 302.797 167.923C267.145 177.045 229.528 181.607 189.964 181.624C150.4 181.658 108.922 177.114 65.5145 168.026Z" fill="#8FA3CF"/>
<path fill-rule="evenodd" clip-rule="evenodd" d="M190.237 41.099C189.691 37.4262 189.11 33.7533 185.727 30.7638C182.994 28.3551 179.578 27.6718 176.246 28.5088C166.817 30.8834 169.106 39.237 161.897 46.036C158.822 48.9401 154.893 49.9309 152.364 53.1425C147.803 58.8995 148.435 69.9692 155.866 77.6566C174.06 96.4991 191.023 73.1296 192.236 67.5947C193.141 63.4948 190.579 43.4565 190.237 41.099Z" fill="#20386F"/>
<path fill-rule="evenodd" clip-rule="evenodd" d="M193.603 160.731C192.971 165.6 191.724 169.922 191.553 170.434C191.467 170.673 190.596 171.596 190.494 171.852C191.262 177.695 190.664 175.064 194.149 177.353C193.278 174.432 195.841 177.045 196.011 176.362C196.302 175.303 197.361 170.434 199.855 164.267C197.036 164.096 195.96 162.388 193.603 160.731Z" fill="#F9AF79"/>
<path fill-rule="evenodd" clip-rule="evenodd" d="M185.3 89.5976L166.953 102.307C166.953 102.307 175.016 111.549 178.057 115C181.081 118.434 196.661 131.178 196.9 131.946C196.951 132.1 195.96 133.774 195.516 135.944C194.337 141.803 192.663 153.249 191.672 163.072C193.381 165.156 197.378 165.924 199.735 166.727C206.569 155.06 210.464 131.98 210.669 129.179C210.959 124.635 185.3 89.5976 185.3 89.5976Z" fill="#20386F"/>
<path fill-rule="evenodd" clip-rule="evenodd" d="M132.548 116.264C133.197 116.742 138.015 123.781 140.013 127.641C141.91 125.933 142.952 124.088 145.155 122.79C142.918 120.296 138.391 114.163 137.861 112.608C136.631 108.936 135.726 108.526 135.726 108.526C135.726 108.526 124.177 114.744 123.528 116.076C122.913 117.426 129.952 114.3 132.548 116.264Z" fill="#F9AF79"/>
<path fill-rule="evenodd" clip-rule="evenodd" d="M138.151 113.445C139.091 113.309 137.451 109.004 137.092 108.03C136.682 106.92 135.999 106.663 135.845 106.646C135.401 106.612 122.555 113.531 120.522 115.598C120.385 115.735 120.146 116.145 120.129 116.23C119.223 118.861 130.43 117.562 131.882 116.23C133.129 115.085 133.898 114.129 138.151 113.445Z" fill="#0E2952"/>
<path fill-rule="evenodd" clip-rule="evenodd" d="M188.768 93.9367L173.957 86.5056C174.009 86.5397 173.821 87.1547 173.804 87.1889C171.993 92.8946 164.51 90.1613 160.701 100.052C158.019 107.022 157.421 131.109 157.421 131.109C157.421 131.109 150.69 125.369 143.635 119.254C142.986 118.707 137.195 124.242 137.195 124.242C146.095 142.076 161.333 149.849 163.4 149.2C170.404 147.031 183.968 102.034 183.968 102.034C185.471 99.4032 188.768 93.9367 188.768 93.9367Z" fill="#223F81"/>
<path fill-rule="evenodd" clip-rule="evenodd" d="M166.919 53.5696C166.919 53.5696 148.469 48.4105 144.352 47.5051C140.235 46.6168 126.04 40.8599 125.493 40.6207C124.946 40.3645 123.255 32.6088 122.418 33.1213C121.581 33.6338 123.494 37.0504 122.452 37.4433C121.41 37.8533 112.903 33.5996 112.817 34.3342C112.646 35.7008 117.925 37.1529 117.72 37.7678C117.515 38.3828 112.356 35.735 111.656 36.6574C110.972 37.597 116.781 38.7074 116.866 39.237C116.951 39.7665 111.246 38.9295 111.502 40.074C111.639 40.689 116.593 40.689 116.353 41.3894C116.114 42.0898 112.305 42.7048 112.527 43.4052C112.766 44.1056 115.653 42.4486 117.583 43.0123C119.514 43.559 121.205 42.944 123.99 44.7719C126.774 46.5997 135.845 54.2017 142.473 55.8758C149.102 57.567 163.725 61.3253 163.725 61.3253L166.919 53.5696Z" fill="#F9AF79"/>
<path fill-rule="evenodd" clip-rule="evenodd" d="M188.666 53.1938C188.666 53.1938 197.105 35.9741 199.172 32.3184C201.256 28.6455 206.398 14.2275 206.586 13.6467C206.774 13.0829 202.11 6.64263 203.05 6.3693C203.989 6.09597 205.253 9.7859 206.261 9.27341C207.252 8.778 209.746 -0.412644 210.361 0.0144302C211.489 0.783165 209.063 5.68598 209.661 5.95931C210.259 6.21555 211.711 0.612336 212.872 0.714834C214.017 0.817331 210.976 5.90806 211.318 6.31805C211.659 6.74513 214.837 1.91064 215.52 2.86729C215.896 3.39686 212.582 7.08679 213.265 7.36011C213.949 7.65052 216.938 5.24182 217.314 5.85681C217.69 6.48888 214.529 7.54803 213.658 9.37591C212.804 11.1867 211.198 12.0408 210.703 15.3208C210.207 18.6178 209.849 30.4392 206.688 36.5037C203.545 42.5852 196.609 55.9954 196.609 55.9954L188.666 53.1938Z" fill="#F9AF79"/>
<path fill-rule="evenodd" clip-rule="evenodd" d="M192.697 74.8892C193.176 71.6092 194.201 62.7602 194.132 61.6669C195.311 58.3016 199.121 53.4671 199.94 52.0663C199.94 52.0663 195.601 46.1727 192.082 46.0018C192.082 46.0018 188.051 50.6655 185.181 51.998C185.147 51.9809 184.173 52.3738 183.763 52.3396C181.098 52.1517 171.805 51.2463 170.011 51.6734V66.7747C170.455 67.6801 169.926 85.0194 170.865 86.5227C171.805 88.0089 186.377 95.4742 188.973 93.9709C189.093 93.8854 191.741 81.5174 192.697 74.8892Z" fill="#6D96CE"/>
<path fill-rule="evenodd" clip-rule="evenodd" d="M174.76 52.2029C174.35 51.9467 173.394 51.6563 171.959 51.5367C167.739 51.178 160.633 50.5459 160.633 50.5459C160.633 50.5459 158.309 59.4803 159.556 61.7523C159.556 61.7523 170.558 64.1952 170.182 65.1348L174.76 52.2029Z" fill="#6D96CE"/>
<path fill-rule="evenodd" clip-rule="evenodd" d="M178.057 46.3947C178.057 46.3947 178.672 51.6734 178.348 53.7233C178.023 55.7733 178.501 62.4698 182.687 62.7602C186.855 63.0507 184.036 54.3725 183.78 52.3225C183.524 50.2897 183.831 44.0373 183.831 44.0373L178.057 46.3947Z" fill="#F9AF79"/>
<path fill-rule="evenodd" clip-rule="evenodd" d="M183.712 47.1635C183.763 45.4552 183.831 44.0373 183.831 44.0373L178.057 46.3947C178.057 46.3947 178.177 47.471 178.296 48.8376C180.705 49.5209 182.55 48.6839 183.712 47.1635Z" fill="#F27458"/>
<path fill-rule="evenodd" clip-rule="evenodd" d="M176.947 31.84C176.947 31.84 174.709 32.9675 173.735 35.6153C172.779 38.2632 173.206 45.3185 178.672 47.3684C184.122 49.4184 186.906 44.0543 186.035 39.6469C185.198 35.2395 183.045 29.6021 176.947 31.84Z" fill="#F9AF79"/>
<path fill-rule="evenodd" clip-rule="evenodd" d="M186.855 38.007C186.667 39.1515 186.001 40.0057 185.352 39.8861C184.702 39.7836 184.344 38.7586 184.515 37.6141C184.702 36.4524 185.369 35.6154 186.018 35.7179C186.667 35.8204 187.043 36.8453 186.855 38.007Z" fill="#F9AF79"/>
<path fill-rule="evenodd" clip-rule="evenodd" d="M190.716 171.22C189.793 170.861 189.674 175.508 189.571 176.533C189.469 177.695 189.981 178.258 190.118 178.344C190.494 178.6 205.151 179.454 208.089 178.515C208.379 178.429 208.721 178.036 208.772 177.882C209.285 176.379 200.572 171.869 197.908 172.091C196.182 172.245 194.867 172.775 190.716 171.22Z" fill="#0E2952"/>
<path fill-rule="evenodd" clip-rule="evenodd" d="M177.63 31.5325C177.63 31.5325 176.11 39.2711 173.599 40.5182C171.087 41.7652 171.873 45.2843 171.873 45.2843C171.873 45.2843 170.216 37.1187 172.283 34.6587C174.384 32.2158 177.63 31.5325 177.63 31.5325Z" fill="#20386F"/>
<path fill-rule="evenodd" clip-rule="evenodd" d="M174.965 41.7311C175.546 42.7902 175.478 43.986 174.777 44.4131C174.094 44.8231 173.052 44.3106 172.471 43.2515C171.89 42.1923 171.959 40.9965 172.659 40.5865C173.342 40.1594 174.367 40.6719 174.965 41.7311Z" fill="#F9AF79"/>
<path fill-rule="evenodd" clip-rule="evenodd" d="M178.365 37.4945C178.091 37.9045 176.947 37.9386 176.383 38.1607C176.093 38.2632 175.375 38.7928 175.102 38.7757C174.248 38.6903 176.656 36.8453 178.194 37.0332C178.365 37.0503 178.467 37.3236 178.365 37.4945Z" fill="#20386F"/>
<path fill-rule="evenodd" clip-rule="evenodd" d="M181.371 36.1791C182.67 35.3591 185.642 36.0254 184.907 36.4525C184.668 36.6062 183.797 36.4183 183.49 36.4354C182.875 36.4866 181.833 36.9308 181.405 36.6745C181.235 36.5891 181.2 36.2987 181.371 36.1791Z" fill="#20386F"/>
<path fill-rule="evenodd" clip-rule="evenodd" d="M177.579 40.6036C177.152 40.7061 176.434 39.1857 177.459 38.9295C178.006 38.8099 178.262 40.4328 177.579 40.6036Z" fill="#20386F"/>
<path fill-rule="evenodd" clip-rule="evenodd" d="M183.848 39.1345C184.275 39.032 184.207 37.3407 183.182 37.597C182.653 37.7336 183.165 39.3053 183.848 39.1345Z" fill="#20386F"/>
<path fill-rule="evenodd" clip-rule="evenodd" d="M180.637 42.6194C180.551 42.4486 180.859 42.3631 181.03 42.2777C181.679 41.9532 181.798 42.2948 180.756 39.442C180.551 38.8782 180.38 38.6049 180.585 38.5366C180.773 38.4853 180.773 38.7245 181.013 39.3565C182.14 42.4486 182.055 42.0557 180.808 42.6877C180.756 42.7048 180.671 42.6877 180.637 42.6194Z" fill="#ED7D57"/>
<path fill-rule="evenodd" clip-rule="evenodd" d="M180.38 45.0281C180.193 44.7377 180.551 44.7889 183.472 44.3106C184.31 44.174 182.02 47.6247 180.38 45.0281Z" fill="white"/>
</svg>
