<svg width="215" height="163" viewBox="0 0 215 163" fill="none" xmlns="http://www.w3.org/2000/svg">
<path fill-rule="evenodd" clip-rule="evenodd" d="M104.161 5.61917C130.25 5.61917 141.244 24.2897 160.07 38.7963C185.001 58.0042 209.923 45.502 213.911 110.389C217.466 168.137 173.14 116.64 110.64 137.326C48.1392 158.011 -15.5081 166.339 3.37945 99.4059C22.2773 32.4729 43.5516 5.61917 104.161 5.61917Z" fill="#E0E8F5"/>
<path fill-rule="evenodd" clip-rule="evenodd" d="M83.4965 44.4585H48.5422C48.7901 43.3942 49.751 42.609 50.8876 42.609C50.9393 42.609 51.0012 42.609 51.0529 42.6193C51.6005 41.2658 52.9334 40.3152 54.4833 40.3152C55.1652 40.3152 55.7955 40.5012 56.3431 40.8111C57.0147 38.6103 59.0501 37.0088 61.4679 37.0088C61.9639 37.0088 62.4392 37.0708 62.8835 37.1948C64.051 34.6117 66.6548 32.8139 69.6718 32.8139C73.2468 32.8139 76.2432 35.3453 76.9561 38.7137C77.0181 38.7137 77.0801 38.7137 77.1421 38.7137C79.4359 38.7137 81.3267 40.4288 81.6057 42.6503C82.5356 42.8156 83.2795 43.5389 83.4965 44.4585Z" fill="white"/>
<path fill-rule="evenodd" clip-rule="evenodd" d="M189.093 75.1559H143.982C144.302 73.7817 145.542 72.7691 147.009 72.7691C147.082 72.7691 147.154 72.7691 147.216 72.7795C147.929 71.0333 149.644 69.8038 151.638 69.8038C152.517 69.8038 153.333 70.0414 154.035 70.4444C154.893 67.6133 157.528 65.5468 160.648 65.5468C161.278 65.5468 161.898 65.6295 162.477 65.7948C163.985 62.4678 167.343 60.143 171.239 60.143C175.857 60.143 179.711 63.408 180.641 67.7476C180.724 67.7476 180.796 67.7373 180.879 67.7373C183.834 67.7373 186.283 69.9484 186.644 72.8105C187.853 73.0481 188.814 73.9677 189.093 75.1559Z" fill="white"/>
<path fill-rule="evenodd" clip-rule="evenodd" d="M56.839 90.9127H22.5356C22.7836 89.8691 23.7135 89.0942 24.8397 89.0942C24.8914 89.0942 24.9431 89.0942 25.005 89.1045C25.5423 87.782 26.8545 86.8417 28.3734 86.8417C29.0347 86.8417 29.6649 87.0174 30.2022 87.3377C30.8532 85.1782 32.8576 83.6077 35.2341 83.6077C35.7197 83.6077 36.1846 83.6697 36.6289 83.7937C37.7758 81.2623 40.3279 79.4955 43.2933 79.4955C46.8063 79.4955 49.7407 81.9752 50.4433 85.2816C50.5053 85.2816 50.5569 85.2816 50.6189 85.2816C52.8714 85.2816 54.7312 86.9657 54.9998 89.1459C55.8988 89.3009 56.6324 90.0035 56.839 90.9127Z" fill="white"/>
<path fill-rule="evenodd" clip-rule="evenodd" d="M213.25 132.18C213.25 148.96 199.653 162.557 182.873 162.557C166.093 162.557 152.496 148.96 152.496 132.18C152.496 115.4 166.093 101.803 182.873 101.803C199.653 101.803 213.25 115.411 213.25 132.18Z" fill="#B0C2E4"/>
<path fill-rule="evenodd" clip-rule="evenodd" d="M158.365 150.127C181.633 149.807 200.583 131.684 202.225 108.767C196.966 104.417 190.23 101.803 182.883 101.803C166.104 101.803 152.506 115.4 152.506 132.18C152.506 138.896 154.686 145.096 158.365 150.127Z" fill="#C4D1EB"/>
<path fill-rule="evenodd" clip-rule="evenodd" d="M182.883 104.489C190.529 104.489 197.452 107.589 202.463 112.6C207.474 117.611 210.574 124.534 210.574 132.18C210.574 139.826 207.474 146.749 202.463 151.76C197.452 156.771 190.529 159.871 182.883 159.871C175.237 159.871 168.315 156.771 163.304 151.76C158.292 146.749 155.193 139.826 155.193 132.18C155.193 124.534 158.292 117.611 163.304 112.6C168.304 107.589 175.227 104.489 182.883 104.489ZM201.017 114.047C196.377 109.408 189.961 106.535 182.873 106.535C175.785 106.535 169.369 109.408 164.729 114.047C160.09 118.686 157.218 125.102 157.218 132.19C157.218 139.278 160.09 145.695 164.729 150.334C169.369 154.973 175.785 157.846 182.873 157.846C189.961 157.846 196.377 154.973 201.017 150.334C205.656 145.695 208.528 139.278 208.528 132.19C208.539 125.102 205.666 118.686 201.017 114.047Z" fill="#8FA3CF"/>
<path fill-rule="evenodd" clip-rule="evenodd" d="M173.326 120.505C175.175 120.505 176.663 122.364 176.663 124.658C176.663 126.952 175.165 128.812 173.326 128.812C171.487 128.812 169.989 126.952 169.989 124.658C169.989 122.364 171.487 120.505 173.326 120.505ZM192.43 120.505C194.27 120.505 195.768 122.364 195.768 124.658C195.768 126.952 194.27 128.812 192.43 128.812C190.591 128.812 189.093 126.952 189.093 124.658C189.083 122.364 190.581 120.505 192.43 120.505Z" fill="#859AC6"/>
<path fill-rule="evenodd" clip-rule="evenodd" d="M168.139 140.725C167.695 140.012 167.912 139.072 168.625 138.627C169.338 138.183 170.278 138.4 170.732 139.113C172.117 141.324 173.853 143.008 175.775 144.176C178.068 145.56 180.652 146.222 183.245 146.16C185.838 146.098 188.463 145.323 190.829 143.845C193.009 142.481 194.982 140.518 196.512 137.977C196.946 137.253 197.886 137.026 198.609 137.46C199.332 137.894 199.56 138.834 199.126 139.557C197.338 142.523 195.013 144.827 192.441 146.439C189.61 148.206 186.458 149.135 183.307 149.208C180.145 149.28 177.004 148.485 174.204 146.79C171.879 145.395 169.792 143.37 168.139 140.725Z" fill="#859AC6"/>
<path fill-rule="evenodd" clip-rule="evenodd" d="M72.0379 132.18C72.0379 148.96 58.4405 162.557 41.6608 162.557C24.8811 162.557 11.2837 148.96 11.2837 132.18C11.2837 115.4 24.8811 101.803 41.6608 101.803C58.4405 101.803 72.0379 115.411 72.0379 132.18Z" fill="#B0C2E4"/>
<path fill-rule="evenodd" clip-rule="evenodd" d="M17.1525 150.127C40.4106 149.807 59.3704 131.684 61.0133 108.767C55.7541 104.417 49.0174 101.803 41.6608 101.803C24.8811 101.803 11.2837 115.4 11.2837 132.18C11.294 138.896 13.4741 145.096 17.1525 150.127Z" fill="#C4D1EB"/>
<path fill-rule="evenodd" clip-rule="evenodd" d="M41.6608 104.489C49.3067 104.489 56.2294 107.589 61.2406 112.6C66.2518 117.611 69.3515 124.534 69.3515 132.18C69.3515 139.826 66.2518 146.749 61.2406 151.76C56.2397 156.781 49.3171 159.881 41.6608 159.881C34.0045 159.881 27.0922 156.781 22.081 151.77C17.0698 146.759 13.9701 139.836 13.9701 132.19C13.9701 124.544 17.0698 117.622 22.081 112.611C27.0922 107.589 34.0149 104.489 41.6608 104.489ZM59.8044 114.047C55.1652 109.408 48.7488 106.535 41.6608 106.535C34.5728 106.535 28.1667 109.408 23.5172 114.047C18.878 118.686 16.0056 125.102 16.0056 132.19C16.0056 139.278 18.878 145.695 23.5172 150.334C28.1564 154.973 34.5728 157.846 41.6608 157.846C48.7488 157.846 55.1652 154.973 59.8044 150.334C64.4436 145.695 67.316 139.278 67.316 132.19C67.3263 125.102 64.4539 118.686 59.8044 114.047Z" fill="#8FA3CF"/>
<path fill-rule="evenodd" clip-rule="evenodd" d="M32.1137 120.505C33.9529 120.505 35.4511 122.364 35.4511 124.658C35.4511 126.952 33.9529 128.812 32.1137 128.812C30.2746 128.812 28.7764 126.952 28.7764 124.658C28.7764 122.364 30.2746 120.505 32.1137 120.505ZM51.2182 120.505C53.0677 120.505 54.5556 122.364 54.5556 124.658C54.5556 126.952 53.0574 128.812 51.2182 128.812C49.3791 128.812 47.8809 126.952 47.8809 124.658C47.8705 122.364 49.3687 120.505 51.2182 120.505Z" fill="#859AC6"/>
<path fill-rule="evenodd" clip-rule="evenodd" d="M26.9269 145.736C26.4826 146.449 26.6996 147.389 27.4125 147.834C28.1254 148.278 29.0657 148.061 29.5203 147.348C30.9048 145.127 32.6407 143.442 34.5625 142.285C36.8666 140.901 39.4394 140.239 42.0328 140.301C44.6262 140.363 47.2506 141.138 49.6167 142.616C51.7968 143.98 53.7703 145.943 55.2995 148.485C55.7335 149.208 56.6737 149.435 57.397 149.001C58.1202 148.567 58.3475 147.627 57.9136 146.904C56.1261 143.938 53.8117 141.634 51.2286 140.022C48.3975 138.256 45.2461 137.326 42.0948 137.253C38.9331 137.181 35.792 137.977 32.992 139.671C30.6569 141.076 28.5801 143.091 26.9269 145.736Z" fill="#859AC6"/>
<path fill-rule="evenodd" clip-rule="evenodd" d="M39.6253 101.627C39.0777 101.514 38.7264 100.976 38.8401 100.429C38.9537 99.8812 39.491 99.5299 40.0386 99.6435C66.1691 105.109 91.1217 107.837 114.886 107.827C138.63 107.816 161.216 105.078 182.635 99.5919C183.183 99.4576 183.731 99.7779 183.875 100.325C184.02 100.873 183.679 101.421 183.142 101.565C161.578 107.083 138.826 109.842 114.896 109.852C90.9668 109.873 65.8798 107.124 39.6253 101.627Z" fill="#8FA3CF"/>
<path fill-rule="evenodd" clip-rule="evenodd" d="M115.062 24.858C114.731 22.6366 114.38 20.4151 112.334 18.6069C110.681 17.1501 108.614 16.7368 106.6 17.2431C100.896 18.6793 102.281 23.7318 97.9204 27.8441C96.0606 29.6006 93.6842 30.1998 92.155 32.1423C89.3962 35.6243 89.7785 42.3197 94.2731 46.9692C105.277 58.3658 115.537 44.2312 116.271 40.8835C116.818 38.4037 115.268 26.2839 115.062 24.858Z" fill="#20386F"/>
<path fill-rule="evenodd" clip-rule="evenodd" d="M117.097 97.2155C116.715 100.16 115.961 102.774 115.857 103.084C115.806 103.229 115.279 103.787 115.217 103.942C115.682 107.475 115.32 105.884 117.428 107.269C116.901 105.502 118.451 107.083 118.554 106.67C118.73 106.029 119.37 103.084 120.879 99.3542C119.174 99.2509 118.523 98.2177 117.097 97.2155Z" fill="#F9AF79"/>
<path fill-rule="evenodd" clip-rule="evenodd" d="M112.076 54.1916L100.979 61.8788C100.979 61.8788 105.856 67.4686 107.695 69.5558C109.524 71.6326 118.947 79.3405 119.091 79.8055C119.122 79.8984 118.523 80.911 118.254 82.2232C117.542 85.7672 116.529 92.6899 115.93 98.631C116.963 99.8915 119.381 100.356 120.807 100.842C124.94 93.7851 127.295 79.8261 127.419 78.1316C127.595 75.3832 112.076 54.1916 112.076 54.1916Z" fill="#20386F"/>
<path fill-rule="evenodd" clip-rule="evenodd" d="M80.1695 70.3204C80.5621 70.6097 83.4758 74.8666 84.6847 77.2017C85.8316 76.1685 86.4619 75.0526 87.7947 74.2673C86.4412 72.7588 83.7031 69.0495 83.3828 68.1092C82.6389 65.8878 82.0913 65.6398 82.0913 65.6398C82.0913 65.6398 75.1066 69.4008 74.714 70.2067C74.342 71.0229 78.5989 69.1321 80.1695 70.3204Z" fill="#F9AF79"/>
<path fill-rule="evenodd" clip-rule="evenodd" d="M83.5585 68.6155C84.1268 68.5329 83.1348 65.9291 82.9179 65.3402C82.6699 64.6686 82.2566 64.5136 82.1636 64.5033C81.895 64.4826 74.125 68.6672 72.8955 69.9174C72.8128 70.0001 72.6682 70.248 72.6578 70.2997C72.1102 71.8909 78.8882 71.1056 79.7665 70.2997C80.5208 69.6074 80.9857 69.0288 83.5585 68.6155Z" fill="#0E2952"/>
<path fill-rule="evenodd" clip-rule="evenodd" d="M114.173 56.816L105.215 52.3214C105.246 52.342 105.132 52.714 105.122 52.7347C104.027 56.1857 99.5013 54.5325 97.1972 60.5149C95.575 64.7305 95.2133 79.2991 95.2133 79.2991C95.2133 79.2991 91.1424 75.8275 86.8751 72.1285C86.4825 71.7979 82.9799 75.1455 82.9799 75.1455C88.363 85.9325 97.5794 90.6337 98.8297 90.2411C103.066 88.9289 111.27 61.7135 111.27 61.7135C112.179 60.1223 114.173 56.816 114.173 56.816Z" fill="#223F81"/>
<path fill-rule="evenodd" clip-rule="evenodd" d="M100.958 32.4007C100.958 32.4007 89.7992 29.2803 87.3091 28.7327C84.819 28.1954 76.2328 24.7134 75.9022 24.5687C75.5716 24.4137 74.5487 19.7229 74.0424 20.0328C73.5361 20.3428 74.6933 22.4093 74.063 22.6469C73.4328 22.8949 68.2873 20.3221 68.2356 20.7664C68.1323 21.593 71.325 22.4713 71.201 22.8432C71.077 23.2152 67.9566 21.6137 67.533 22.1716C67.1197 22.7399 70.6327 23.4115 70.6844 23.7318C70.736 24.0521 67.285 23.5458 67.44 24.2381C67.5227 24.6101 70.519 24.6101 70.3744 25.0337C70.2297 25.4573 67.9256 25.8293 68.0599 26.2529C68.2046 26.6765 69.9508 25.6743 71.1183 26.0153C72.2859 26.3459 73.3088 25.9739 74.9929 27.0795C76.6771 28.1851 82.1636 32.783 86.1725 33.7955C90.1815 34.8184 99.026 37.0915 99.026 37.0915L100.958 32.4007Z" fill="#F9AF79"/>
<path fill-rule="evenodd" clip-rule="evenodd" d="M114.111 32.1733C114.111 32.1733 119.215 21.7583 120.466 19.5472C121.726 17.3257 124.836 8.60524 124.95 8.25394C125.064 7.91297 122.243 4.01768 122.811 3.85236C123.379 3.68704 124.144 5.91883 124.754 5.60886C125.353 5.30922 126.861 -0.249581 127.233 0.00872788C127.915 0.473684 126.448 3.43907 126.81 3.60439C127.171 3.75937 128.05 0.370361 128.752 0.432355C129.444 0.494349 127.605 3.57339 127.812 3.82137C128.019 4.07967 129.94 1.15562 130.354 1.73423C130.581 2.05453 128.577 4.28632 128.99 4.45164C129.403 4.62729 131.211 3.17043 131.439 3.54239C131.666 3.92469 129.754 4.56529 129.227 5.67085C128.711 6.76608 127.74 7.2827 127.44 9.26651C127.14 11.2607 126.923 18.4106 125.012 22.0786C123.111 25.7569 118.916 33.8678 118.916 33.8678L114.111 32.1733Z" fill="#F9AF79"/>
<path fill-rule="evenodd" clip-rule="evenodd" d="M116.55 45.2954C116.839 43.3116 117.459 37.9594 117.418 37.2982C118.13 35.2627 120.435 32.3386 120.931 31.4914C120.931 31.4914 118.306 27.9267 116.178 27.8234C116.178 27.8234 113.739 30.6441 112.003 31.45C111.983 31.4397 111.394 31.6774 111.146 31.6567C109.534 31.543 103.913 30.9954 102.828 31.2537V40.3875C103.097 40.9351 102.777 51.4225 103.345 52.3317C103.913 53.2306 112.727 57.7459 114.297 56.8366C114.37 56.785 115.971 49.3043 116.55 45.2954Z" fill="#6D96CE"/>
<path fill-rule="evenodd" clip-rule="evenodd" d="M105.701 31.574C105.453 31.4191 104.874 31.2434 104.006 31.1711C101.454 30.9541 97.1558 30.5718 97.1558 30.5718C97.1558 30.5718 95.7506 35.9756 96.5049 37.3498C96.5049 37.3498 103.159 38.8274 102.932 39.3956L105.701 31.574Z" fill="#6D96CE"/>
<path fill-rule="evenodd" clip-rule="evenodd" d="M107.695 28.0611C107.695 28.0611 108.067 31.2538 107.87 32.4936C107.674 33.7335 107.963 37.7838 110.495 37.9594C113.016 38.1351 111.311 32.8863 111.156 31.6464C111.001 30.4168 111.187 26.6352 111.187 26.6352L107.695 28.0611Z" fill="#F9AF79"/>
<path fill-rule="evenodd" clip-rule="evenodd" d="M111.115 28.526C111.146 27.4928 111.187 26.6352 111.187 26.6352L107.695 28.0611C107.695 28.0611 107.767 28.712 107.839 29.5386C109.296 29.9519 110.412 29.4456 111.115 28.526Z" fill="#F27458"/>
<path fill-rule="evenodd" clip-rule="evenodd" d="M107.023 19.2579C107.023 19.2579 105.67 19.9398 105.081 21.5413C104.502 23.1428 104.76 27.4101 108.067 28.65C111.363 29.8899 113.047 26.6455 112.52 23.9798C112.014 21.314 110.712 17.9043 107.023 19.2579Z" fill="#F9AF79"/>
<path fill-rule="evenodd" clip-rule="evenodd" d="M113.016 22.9879C112.902 23.6801 112.499 24.1968 112.107 24.1244C111.714 24.0624 111.497 23.4425 111.6 22.7502C111.714 22.0476 112.117 21.5413 112.51 21.6033C112.902 21.6653 113.13 22.2853 113.016 22.9879Z" fill="#F9AF79"/>
<path fill-rule="evenodd" clip-rule="evenodd" d="M115.351 103.56C114.793 103.343 114.721 106.153 114.659 106.773C114.597 107.475 114.907 107.816 114.989 107.868C115.217 108.023 124.082 108.54 125.859 107.971C126.035 107.92 126.241 107.682 126.272 107.589C126.582 106.68 121.313 103.952 119.701 104.086C118.657 104.179 117.862 104.5 115.351 103.56Z" fill="#0E2952"/>
<path fill-rule="evenodd" clip-rule="evenodd" d="M107.437 19.0719C107.437 19.0719 106.517 23.7524 104.998 24.5067C103.479 25.261 103.955 27.3894 103.955 27.3894C103.955 27.3894 102.952 22.4506 104.202 20.9627C105.473 19.4852 107.437 19.0719 107.437 19.0719Z" fill="#20386F"/>
<path fill-rule="evenodd" clip-rule="evenodd" d="M105.825 25.2403C106.176 25.8809 106.135 26.6042 105.711 26.8625C105.298 27.1105 104.667 26.8005 104.316 26.1599C103.965 25.5193 104.006 24.796 104.43 24.5481C104.843 24.2898 105.463 24.5997 105.825 25.2403Z" fill="#F9AF79"/>
<path fill-rule="evenodd" clip-rule="evenodd" d="M107.881 22.6779C107.715 22.9259 107.023 22.9465 106.682 23.0808C106.507 23.1428 106.073 23.4631 105.907 23.4528C105.391 23.4011 106.848 22.2852 107.777 22.3989C107.881 22.4092 107.943 22.5746 107.881 22.6779Z" fill="#20386F"/>
<path fill-rule="evenodd" clip-rule="evenodd" d="M109.699 21.8823C110.485 21.3864 112.282 21.7893 111.838 22.0476C111.693 22.1406 111.167 22.027 110.981 22.0373C110.609 22.0683 109.978 22.3369 109.72 22.1819C109.617 22.1303 109.596 21.9546 109.699 21.8823Z" fill="#20386F"/>
<path fill-rule="evenodd" clip-rule="evenodd" d="M107.405 24.5584C107.147 24.6204 106.713 23.7008 107.333 23.5458C107.664 23.4735 107.819 24.4551 107.405 24.5584Z" fill="#20386F"/>
<path fill-rule="evenodd" clip-rule="evenodd" d="M111.197 23.6698C111.456 23.6078 111.414 22.5849 110.795 22.7399C110.474 22.8225 110.784 23.7731 111.197 23.6698Z" fill="#20386F"/>
<path fill-rule="evenodd" clip-rule="evenodd" d="M109.255 25.7776C109.203 25.6743 109.389 25.6226 109.493 25.571C109.885 25.3746 109.958 25.5813 109.327 23.8558C109.203 23.5148 109.1 23.3495 109.224 23.3082C109.338 23.2772 109.338 23.4218 109.482 23.8041C110.164 25.6743 110.113 25.4366 109.358 25.8189C109.327 25.8293 109.276 25.8189 109.255 25.7776Z" fill="#ED7D57"/>
<path fill-rule="evenodd" clip-rule="evenodd" d="M109.1 27.2345C108.986 27.0588 109.203 27.0898 110.97 26.8005C111.476 26.7178 110.092 28.805 109.1 27.2345Z" fill="white"/>
</svg>
