<svg width="402" height="305" viewBox="0 0 402 305" fill="none" xmlns="http://www.w3.org/2000/svg">
<path fill-rule="evenodd" clip-rule="evenodd" d="M195.434 10.5431C244.384 10.5431 265.011 45.5739 300.332 72.7922C347.111 108.831 393.871 85.3738 401.354 207.119C408.023 315.469 324.856 218.848 207.589 257.659C90.3217 296.47 -29.0972 312.095 6.34073 186.512C41.7981 60.9278 81.7143 10.5431 195.434 10.5431Z" fill="#E0E8F5"/>
<path fill-rule="evenodd" clip-rule="evenodd" d="M156.661 83.4158H91.0778C91.5431 81.419 93.346 79.9456 95.4785 79.9456C95.5754 79.9456 95.6917 79.9456 95.7887 79.965C96.8161 77.4254 99.317 75.6419 102.225 75.6419C103.504 75.6419 104.687 75.9909 105.714 76.5724C106.975 72.4432 110.794 69.4383 115.33 69.4383C116.26 69.4383 117.152 69.5546 117.986 69.7873C120.177 64.9407 125.062 61.5675 130.723 61.5675C137.43 61.5675 143.052 66.3171 144.39 72.637C144.506 72.637 144.623 72.637 144.739 72.637C149.043 72.637 152.59 75.8552 153.114 80.0232C154.858 80.3334 156.254 81.6904 156.661 83.4158Z" fill="white"/>
<path fill-rule="evenodd" clip-rule="evenodd" d="M354.788 141.012H270.148C270.749 138.434 273.075 136.534 275.828 136.534C275.964 136.534 276.1 136.534 276.216 136.553C277.554 133.277 280.772 130.97 284.513 130.97C286.161 130.97 287.693 131.416 289.011 132.172C290.62 126.86 295.563 122.983 301.418 122.983C302.601 122.983 303.764 123.138 304.849 123.448C307.68 117.206 313.98 112.844 321.289 112.844C329.954 112.844 337.186 118.97 338.93 127.112C339.085 127.112 339.221 127.093 339.376 127.093C344.921 127.093 349.515 131.242 350.194 136.611C352.462 137.057 354.265 138.783 354.788 141.012Z" fill="white"/>
<path fill-rule="evenodd" clip-rule="evenodd" d="M106.645 170.576H42.2827C42.748 168.618 44.4927 167.164 46.6058 167.164C46.7028 167.164 46.7997 167.164 46.916 167.184C47.9241 164.702 50.3861 162.938 53.2359 162.938C54.4766 162.938 55.6592 163.268 56.6673 163.869C57.8886 159.817 61.6495 156.87 66.1084 156.87C67.0195 156.87 67.8919 156.986 68.7255 157.219C70.8774 152.469 75.6657 149.154 81.2296 149.154C87.8209 149.154 93.3266 153.807 94.6448 160.011C94.7612 160.011 94.8581 160.011 94.9744 160.011C99.2006 160.011 102.69 163.171 103.194 167.261C104.881 167.552 106.257 168.87 106.645 170.576Z" fill="white"/>
<path fill-rule="evenodd" clip-rule="evenodd" d="M400.113 248.005C400.113 279.488 374.601 305 343.118 305C311.635 305 286.122 279.488 286.122 248.005C286.122 216.521 311.635 191.009 343.118 191.009C374.601 191.009 400.113 216.541 400.113 248.005Z" fill="#B0C2E4"/>
<path fill-rule="evenodd" clip-rule="evenodd" d="M297.134 281.678C340.791 281.077 376.346 247.074 379.428 204.075C369.56 195.914 356.921 191.009 343.137 191.009C311.654 191.009 286.142 216.521 286.142 248.005C286.142 260.606 290.232 272.237 297.134 281.678Z" fill="#C4D1EB"/>
<path fill-rule="evenodd" clip-rule="evenodd" d="M343.137 196.05C357.483 196.05 370.472 201.865 379.874 211.268C389.276 220.67 395.092 233.659 395.092 248.005C395.092 262.35 389.276 275.339 379.874 284.741C370.472 294.144 357.483 299.96 343.137 299.96C328.791 299.96 315.803 294.144 306.4 284.741C296.998 275.339 291.182 262.35 291.182 248.005C291.182 233.659 296.998 220.67 306.4 211.268C315.783 201.865 328.772 196.05 343.137 196.05ZM377.16 213.982C368.455 205.277 356.417 199.888 343.118 199.888C329.819 199.888 317.78 205.277 309.076 213.982C300.371 222.686 294.982 234.725 294.982 248.024C294.982 261.323 300.371 273.362 309.076 282.066C317.78 290.771 329.819 296.16 343.118 296.16C356.417 296.16 368.455 290.771 377.16 282.066C385.864 273.362 391.254 261.323 391.254 248.024C391.273 234.725 385.884 222.686 377.16 213.982Z" fill="#8FA3CF"/>
<path fill-rule="evenodd" clip-rule="evenodd" d="M325.205 226.098C328.675 226.098 331.467 229.588 331.467 233.891C331.467 238.195 328.656 241.685 325.205 241.685C321.754 241.685 318.943 238.195 318.943 233.891C318.943 229.588 321.754 226.098 325.205 226.098ZM361.05 226.098C364.501 226.098 367.312 229.588 367.312 233.891C367.312 238.195 364.501 241.685 361.05 241.685C357.599 241.685 354.788 238.195 354.788 233.891C354.769 229.588 357.58 226.098 361.05 226.098Z" fill="#859AC6"/>
<path fill-rule="evenodd" clip-rule="evenodd" d="M315.473 264.037C314.639 262.699 315.046 260.935 316.384 260.102C317.722 259.268 319.486 259.675 320.339 261.013C322.937 265.161 326.194 268.321 329.799 270.512C334.103 273.11 338.95 274.35 343.816 274.234C348.682 274.118 353.606 272.664 358.045 269.892C362.136 267.333 365.838 263.649 368.707 258.88C369.522 257.523 371.286 257.097 372.643 257.911C374 258.725 374.426 260.489 373.612 261.846C370.258 267.41 365.896 271.733 361.069 274.758C355.757 278.073 349.845 279.817 343.932 279.953C338 280.089 332.106 278.596 326.853 275.417C322.491 272.8 318.575 269 315.473 264.037Z" fill="#859AC6"/>
<path fill-rule="evenodd" clip-rule="evenodd" d="M135.162 248.005C135.162 279.488 109.65 305 78.1666 305C46.6834 305 21.1711 279.488 21.1711 248.005C21.1711 216.521 46.6834 191.009 78.1666 191.009C109.65 191.009 135.162 216.541 135.162 248.005Z" fill="#B0C2E4"/>
<path fill-rule="evenodd" clip-rule="evenodd" d="M32.1825 281.678C75.8208 281.077 111.394 247.074 114.477 204.075C104.609 195.914 91.9695 191.009 78.1666 191.009C46.6834 191.009 21.1711 216.521 21.1711 248.005C21.1905 260.606 25.281 272.237 32.1825 281.678Z" fill="#C4D1EB"/>
<path fill-rule="evenodd" clip-rule="evenodd" d="M78.1665 196.05C92.5123 196.05 105.501 201.865 114.903 211.268C124.306 220.67 130.122 233.659 130.122 248.005C130.122 262.35 124.306 275.339 114.903 284.741C105.52 294.163 92.5317 299.979 78.1665 299.979C63.8014 299.979 50.832 294.163 41.4297 284.761C32.0274 275.358 26.2115 262.37 26.2115 248.024C26.2115 233.678 32.0274 220.689 41.4297 211.287C50.832 201.865 63.8208 196.05 78.1665 196.05ZM112.209 213.982C103.504 205.277 91.4655 199.888 78.1665 199.888C64.8676 199.888 52.8482 205.277 44.1244 213.982C35.42 222.686 30.0306 234.725 30.0306 248.024C30.0306 261.323 35.42 273.362 44.1244 282.066C52.8288 290.771 64.8676 296.16 78.1665 296.16C91.4655 296.16 103.504 290.771 112.209 282.066C120.913 273.362 126.302 261.323 126.302 248.024C126.322 234.725 120.932 222.686 112.209 213.982Z" fill="#8FA3CF"/>
<path fill-rule="evenodd" clip-rule="evenodd" d="M60.2537 226.098C63.7045 226.098 66.5155 229.588 66.5155 233.891C66.5155 238.195 63.7045 241.685 60.2537 241.685C56.803 241.685 53.992 238.195 53.992 233.891C53.992 229.588 56.803 226.098 60.2537 226.098ZM96.0988 226.098C99.569 226.098 102.361 229.588 102.361 233.891C102.361 238.195 99.5496 241.685 96.0988 241.685C92.6481 241.685 89.8371 238.195 89.8371 233.891C89.8177 229.588 92.6287 226.098 96.0988 226.098Z" fill="#859AC6"/>
<path fill-rule="evenodd" clip-rule="evenodd" d="M50.5219 273.439C49.6883 274.777 50.0954 276.541 51.433 277.375C52.7707 278.208 54.5348 277.801 55.3878 276.464C57.9856 272.295 61.2424 269.136 64.8483 266.964C69.1714 264.367 73.9985 263.126 78.8645 263.242C83.7304 263.358 88.6545 264.812 93.094 267.585C97.1844 270.144 100.887 273.827 103.756 278.596C104.571 279.953 106.335 280.38 107.692 279.565C109.049 278.751 109.475 276.987 108.661 275.63C105.307 270.066 100.965 265.743 96.1182 262.719C90.8064 259.404 84.8936 257.659 78.9808 257.523C73.0486 257.388 67.1552 258.88 61.9016 262.06C57.5203 264.696 53.6237 268.476 50.5219 273.439Z" fill="#859AC6"/>
<path fill-rule="evenodd" clip-rule="evenodd" d="M74.3475 190.68C73.3201 190.466 72.6609 189.458 72.8742 188.431C73.0874 187.403 74.0955 186.744 75.123 186.957C124.151 197.213 170.968 202.331 215.557 202.311C260.106 202.292 302.484 197.155 342.672 186.861C343.699 186.609 344.727 187.209 344.998 188.237C345.27 189.264 344.63 190.292 343.622 190.563C303.163 200.916 260.474 206.092 215.576 206.111C170.678 206.15 123.608 200.993 74.3475 190.68Z" fill="#8FA3CF"/>
<path fill-rule="evenodd" clip-rule="evenodd" d="M215.886 46.6402C215.266 42.4721 214.607 38.3041 210.768 34.9115C207.666 32.1781 203.789 31.4026 200.009 32.3525C189.308 35.0472 191.905 44.5271 183.724 52.2428C180.235 55.5384 175.776 56.6628 172.907 60.3074C167.731 66.8406 168.448 79.4028 176.881 88.1266C197.527 109.51 216.778 82.9893 218.154 76.7082C219.182 72.0555 216.274 49.3155 215.886 46.6402Z" fill="#20386F"/>
<path fill-rule="evenodd" clip-rule="evenodd" d="M219.705 182.402C218.988 187.927 217.573 192.832 217.379 193.413C217.282 193.684 216.293 194.731 216.177 195.022C217.049 201.652 216.371 198.667 220.326 201.264C219.337 197.949 222.245 200.916 222.439 200.14C222.768 198.938 223.97 193.413 226.801 186.415C223.602 186.221 222.38 184.282 219.705 182.402Z" fill="#F9AF79"/>
<path fill-rule="evenodd" clip-rule="evenodd" d="M210.284 101.678L189.463 116.101C189.463 116.101 198.613 126.589 202.064 130.505C205.495 134.401 223.175 148.864 223.447 149.736C223.505 149.91 222.38 151.81 221.876 154.272C220.539 160.922 218.639 173.911 217.515 185.058C219.453 187.423 223.99 188.295 226.665 189.206C234.419 175.965 238.839 149.775 239.072 146.595C239.402 141.439 210.284 101.678 210.284 101.678Z" fill="#20386F"/>
<path fill-rule="evenodd" clip-rule="evenodd" d="M150.419 131.939C151.156 132.482 156.623 140.469 158.891 144.851C161.043 142.912 162.225 140.818 164.726 139.345C162.186 136.515 157.049 129.555 156.448 127.791C155.052 123.623 154.025 123.157 154.025 123.157C154.025 123.157 140.92 130.214 140.183 131.726C139.485 133.258 147.472 129.71 150.419 131.939Z" fill="#F9AF79"/>
<path fill-rule="evenodd" clip-rule="evenodd" d="M156.778 128.741C157.844 128.586 155.983 123.7 155.576 122.595C155.11 121.335 154.335 121.044 154.161 121.025C153.656 120.986 139.078 128.838 136.771 131.183C136.616 131.338 136.345 131.804 136.325 131.901C135.298 134.886 148.015 133.413 149.663 131.901C151.078 130.602 151.95 129.516 156.778 128.741Z" fill="#0E2952"/>
<path fill-rule="evenodd" clip-rule="evenodd" d="M214.219 106.602L197.411 98.1687C197.469 98.2074 197.256 98.9053 197.237 98.9441C195.182 105.419 186.691 102.317 182.367 113.542C179.324 121.451 178.645 148.786 178.645 148.786C178.645 148.786 171.007 142.272 163.001 135.332C162.264 134.712 155.692 140.993 155.692 140.993C165.792 161.232 183.085 170.053 185.43 169.316C193.379 166.854 208.771 115.791 208.771 115.791C210.477 112.805 214.219 106.602 214.219 106.602Z" fill="#223F81"/>
<path fill-rule="evenodd" clip-rule="evenodd" d="M189.424 60.7921C189.424 60.7921 168.487 54.9375 163.815 53.91C159.143 52.9019 143.033 46.3688 142.412 46.0974C141.792 45.8066 139.873 37.0052 138.923 37.5868C137.973 38.1684 140.144 42.0457 138.962 42.4915C137.779 42.9568 128.125 38.1296 128.028 38.9633C127.834 40.5141 133.824 42.162 133.592 42.8599C133.359 43.5578 127.504 40.5529 126.71 41.5998C125.934 42.666 132.525 43.9261 132.622 44.5271C132.719 45.1281 126.244 44.1781 126.535 45.477C126.69 46.1749 132.312 46.1749 132.041 46.9697C131.769 47.7646 127.446 48.4625 127.698 49.2573C127.97 50.0522 131.246 48.1717 133.437 48.8114C135.627 49.4318 137.547 48.7339 140.706 50.8082C143.866 52.8825 154.16 61.5094 161.682 63.4092C169.204 65.3285 185.799 69.5934 185.799 69.5934L189.424 60.7921Z" fill="#F9AF79"/>
<path fill-rule="evenodd" clip-rule="evenodd" d="M214.103 60.3656C214.103 60.3656 223.679 40.8243 226.025 36.6757C228.39 32.5076 234.225 16.1457 234.439 15.4866C234.652 14.8468 229.36 7.53822 230.426 7.22804C231.492 6.91786 232.927 11.1053 234.07 10.5237C235.195 9.96149 238.025 -0.468279 238.723 0.0163758C240.003 0.888755 237.25 6.45259 237.928 6.76277C238.607 7.05357 240.255 0.694894 241.573 0.811211C242.872 0.927528 239.421 6.70462 239.809 7.16988C240.196 7.65454 243.802 2.16824 244.578 3.25387C245.004 3.85484 241.243 8.04226 242.019 8.35244C242.794 8.68201 246.187 5.94855 246.613 6.64645C247.04 7.36374 243.453 8.56569 242.465 10.64C241.495 12.6949 239.673 13.6643 239.111 17.3864C238.549 21.1279 238.141 34.5432 234.555 41.4253C230.988 48.3268 223.117 63.5449 223.117 63.5449L214.103 60.3656Z" fill="#F9AF79"/>
<path fill-rule="evenodd" clip-rule="evenodd" d="M218.678 84.9861C219.221 81.2639 220.384 71.2219 220.306 69.9811C221.644 66.1621 225.967 60.6758 226.897 59.0861C226.897 59.0861 221.973 52.3979 217.98 52.204C217.98 52.204 213.405 57.4964 210.148 59.0086C210.109 58.9892 209.004 59.4351 208.539 59.3963C205.515 59.183 194.968 58.1556 192.933 58.6402V75.7776C193.437 76.8051 192.836 96.4821 193.902 98.1881C194.968 99.8747 211.505 108.346 214.452 106.64C214.587 106.544 217.592 92.5079 218.678 84.9861Z" fill="#6D96CE"/>
<path fill-rule="evenodd" clip-rule="evenodd" d="M198.322 59.2412C197.857 58.9504 196.771 58.6208 195.143 58.4851C190.354 58.078 182.29 57.3607 182.29 57.3607C182.29 57.3607 179.653 67.4997 181.068 70.0781C181.068 70.0781 193.553 72.8503 193.127 73.9166L198.322 59.2412Z" fill="#6D96CE"/>
<path fill-rule="evenodd" clip-rule="evenodd" d="M202.064 52.6499C202.064 52.6499 202.762 58.6402 202.393 60.9666C202.025 63.2929 202.568 70.8923 207.317 71.2219C212.048 71.5514 208.849 61.7033 208.558 59.3769C208.267 57.07 208.616 49.9746 208.616 49.9746L202.064 52.6499Z" fill="#F9AF79"/>
<path fill-rule="evenodd" clip-rule="evenodd" d="M208.481 53.5223C208.539 51.5837 208.616 49.9746 208.616 49.9746L202.064 52.6499C202.064 52.6499 202.199 53.8712 202.335 55.4221C205.069 56.1976 207.162 55.2477 208.481 53.5223Z" fill="#F27458"/>
<path fill-rule="evenodd" clip-rule="evenodd" d="M200.804 36.1329C200.804 36.1329 198.264 37.4124 197.159 40.4172C196.073 43.4221 196.558 51.4286 202.762 53.7549C208.946 56.0813 212.106 49.994 211.117 44.9924C210.167 39.9907 207.725 33.5933 200.804 36.1329Z" fill="#F9AF79"/>
<path fill-rule="evenodd" clip-rule="evenodd" d="M212.048 43.1313C211.834 44.4302 211.078 45.3995 210.342 45.2638C209.605 45.1474 209.198 43.9843 209.392 42.6854C209.605 41.3671 210.361 40.4172 211.098 40.5335C211.834 40.6498 212.261 41.813 212.048 43.1313Z" fill="#F9AF79"/>
<path fill-rule="evenodd" clip-rule="evenodd" d="M216.429 194.305C215.382 193.898 215.246 199.171 215.13 200.334C215.014 201.652 215.595 202.292 215.75 202.389C216.177 202.68 232.81 203.649 236.145 202.583C236.474 202.486 236.862 202.04 236.92 201.865C237.502 200.159 227.615 195.041 224.59 195.294C222.632 195.468 221.14 196.069 216.429 194.305Z" fill="#0E2952"/>
<path fill-rule="evenodd" clip-rule="evenodd" d="M201.579 35.7839C201.579 35.7839 199.854 44.5658 197.004 45.981C194.154 47.3962 195.046 51.3898 195.046 51.3898C195.046 51.3898 193.165 42.1232 195.511 39.3316C197.896 36.5594 201.579 35.7839 201.579 35.7839Z" fill="#20386F"/>
<path fill-rule="evenodd" clip-rule="evenodd" d="M198.555 47.3575C199.214 48.5594 199.136 49.9164 198.342 50.4011C197.566 50.8664 196.384 50.2848 195.724 49.0828C195.065 47.8809 195.143 46.5239 195.938 46.0586C196.713 45.5739 197.876 46.1555 198.555 47.3575Z" fill="#F9AF79"/>
<path fill-rule="evenodd" clip-rule="evenodd" d="M202.413 42.5497C202.103 43.015 200.804 43.0537 200.164 43.3057C199.834 43.4221 199.02 44.023 198.71 44.0037C197.741 43.9067 200.474 41.813 202.219 42.0263C202.413 42.0456 202.529 42.3558 202.413 42.5497Z" fill="#20386F"/>
<path fill-rule="evenodd" clip-rule="evenodd" d="M205.825 41.057C207.298 40.1264 210.671 40.8825 209.838 41.3671C209.566 41.5416 208.578 41.3284 208.229 41.3478C207.531 41.4059 206.348 41.91 205.863 41.6192C205.67 41.5222 205.631 41.1927 205.825 41.057Z" fill="#20386F"/>
<path fill-rule="evenodd" clip-rule="evenodd" d="M201.521 46.078C201.036 46.1943 200.222 44.4689 201.385 44.1781C202.006 44.0424 202.296 45.8841 201.521 46.078Z" fill="#20386F"/>
<path fill-rule="evenodd" clip-rule="evenodd" d="M208.636 44.4108C209.12 44.2944 209.043 42.3752 207.88 42.666C207.279 42.8211 207.86 44.6046 208.636 44.4108Z" fill="#20386F"/>
<path fill-rule="evenodd" clip-rule="evenodd" d="M204.991 48.3656C204.894 48.1717 205.243 48.0748 205.437 47.9778C206.174 47.6095 206.309 47.9972 205.127 44.7597C204.894 44.12 204.7 43.8098 204.933 43.7323C205.146 43.6741 205.146 43.9455 205.418 44.6628C206.697 48.1717 206.6 47.7258 205.185 48.4431C205.127 48.4625 205.03 48.4431 204.991 48.3656Z" fill="#ED7D57"/>
<path fill-rule="evenodd" clip-rule="evenodd" d="M204.7 51.099C204.487 50.7694 204.894 50.8276 208.209 50.2848C209.159 50.1297 206.561 54.0457 204.7 51.099Z" fill="white"/>
</svg>
