<svg width="60" height="60" viewBox="0 0 60 60" fill="none" xmlns="http://www.w3.org/2000/svg">
<path fill-rule="evenodd" clip-rule="evenodd" d="M27.5 10H30H32.5V12.5H35V15V17.5H37.5V20V22.5H40H42.5H45H47.5H50V25V27.5H47.5V30H45V32.5H42.5V35V37.5H45V40V42.5H42.5V40H40V37.5H37.5V35V32.5H40V30H42.5V27.5H45V25H42.5H40H37.5H35V22.5H32.5V20V17.5H30V15V12.5H27.5V10ZM25 17.5V15V12.5H27.5V15V17.5H25ZM22.5 22.5V20V17.5H25V20V22.5H22.5ZM12.5 27.5H10V25V22.5H12.5H15H17.5H20H22.5V25H20H17.5H15H12.5V27.5ZM15 30H12.5V27.5H15V30ZM17.5 32.5H15V30H17.5V32.5ZM17.5 37.5V35V32.5H20V35V37.5H17.5ZM15 42.5V40V37.5H17.5V40V42.5H15ZM15 47.5H12.5V45V42.5H15V45V47.5ZM20 47.5V50H17.5H15V47.5H17.5H20ZM22.5 45V47.5H20V45H22.5ZM25 42.5V45H22.5V42.5H25ZM27.5 40V42.5H25V40H27.5ZM30 37.5H27.5V40H30H32.5V42.5H35V45H37.5V47.5H40V50H42.5H45V47.5H47.5V45V42.5H45V45V47.5H42.5H40V45H37.5V42.5H35V40H32.5V37.5H30Z" fill="#1E1E1E"/>
<path fill-rule="evenodd" clip-rule="evenodd" d="M27.5 25H25V27.5H22.5V30H25V27.5H27.5V25Z" fill="#1E1E1E"/>
</svg>
