<svg width="60" height="60" viewBox="0 0 60 60" fill="none" xmlns="http://www.w3.org/2000/svg">
<rect width="2.5" height="2.5" transform="matrix(-1 0 0 1 31.25 28.75)" fill="#1E1E1E"/>
<path fill-rule="evenodd" clip-rule="evenodd" d="M38.75 22.5H36.25V25H33.75V27.5H31.25V30H28.75V27.5H26.25V25H23.75V22.5H21.25V25H23.75V27.5H26.25V30H28.75V32.5H26.25V35H23.75V37.5H21.25V40H23.75V37.5H26.25V35H28.75V32.5H31.25V35H33.75V37.5H36.25V40H38.75V37.5H36.25V35H33.75V32.5H31.25V30H33.75V27.5H36.25V25H38.75V22.5Z" fill="#1E1E1E"/>
<path fill-rule="evenodd" clip-rule="evenodd" d="M22.5 10H37.5H40V12.5H37.5H22.5V10ZM17.5 15V12.5H20H22.5L22.5 15H20H17.5ZM15 17.5V15H17.5V17.5H15ZM12.5 22.5L12.5 17.5H15V22.5H12.5ZM12.5 37.5H10V22.5H12.5L12.5 37.5ZM15 42.5H12.5V40V37.5H15V40V42.5ZM17.5 45H15V42.5H17.5V45ZM22.5 47.5H20H17.5V45H20H22.5L22.5 47.5ZM40 47.5V50H37.5H22.5V47.5H37.5H40ZM47.5 37.5H45V40V42.5H42.5V45H40V47.5H42.5H45V45H47.5V42.5H50V40V37.5H52.5V22.5H50V20V17.5H47.5V15H45V12.5H42.5H40V15H42.5V17.5H45V20V22.5H47.5V37.5Z" fill="#1E1E1E"/>
</svg>
