<svg width="60" height="60" viewBox="0 0 60 60" fill="none" xmlns="http://www.w3.org/2000/svg">
<g clip-path="url(#clip0_535_8289)">
<path fill-rule="evenodd" clip-rule="evenodd" d="M20 31.25H17.5V28.75H15H12.5V31.25V33.75H15H17.5H20V31.25Z" fill="#131313"/>
<path d="M31.25 33.75L31.25 31.25L28.75 31.25L28.75 33.75L31.25 33.75Z" fill="#131313"/>
<path fill-rule="evenodd" clip-rule="evenodd" d="M31.25 28.75V31.25H28.75V33.75H26.25V31.25V28.75H28.75H31.25ZM31.25 31.25V33.75H33.75V31.25H31.25Z" fill="#131313"/>
<path fill-rule="evenodd" clip-rule="evenodd" d="M21.25 37.5H18.75V40H21.25H23.75H26.25V37.5H23.75H21.25Z" fill="#131313"/>
<path fill-rule="evenodd" clip-rule="evenodd" d="M22.5 15V12.5H25H27.5H30H32.5H35V15H32.5H30H27.5H25H22.5ZM17.5 17.5V15H20H22.5V17.5H20H17.5ZM15 20V17.5H17.5V20H15ZM12.5 22.5H15V20H12.5V17.5H10H7.5V15H5H2.5H0V17.5V20H2.5V22.5H5V25H7.5V27.5V30V32.5V35V37.5V40H10V42.5H12.5V45H15V47.5H17.5H20H22.5H25H27.5H30H32.5H35H37.5V45H40V42.5H42.5V40V37.5H45V35H47.5H50V32.5H52.5V30H55V27.5H57.5V25V22.5H60V20V17.5V15H57.5H55H52.5V17.5H50H47.5V20H45H42.5V17.5H40V15H37.5H35V17.5H37.5H40V20V22.5H37.5V25H40V22.5H42.5H45H47.5V20H50H52.5V22.5H50V25H47.5H45V27.5H42.5V30H45V27.5H47.5H50V25H52.5V22.5H55V25V27.5H52.5V30H50V32.5H47.5H45V35H42.5H40V37.5V40V42.5H37.5V45H35H32.5H30H27.5H25H22.5H20H17.5H15V42.5H12.5V40H10V37.5V35V32.5V30V27.5V25H12.5V22.5ZM12.5 22.5V20H10H7.5V17.5H5H2.5V20H5V22.5H7.5V25H10V22.5H12.5ZM55 22.5V20H52.5V17.5H55H57.5V20V22.5H55Z" fill="#131313"/>
</g>
<defs>
<clipPath id="clip0_535_8289">
<rect width="60" height="60" fill="white"/>
</clipPath>
</defs>
</svg>
