<svg width="60" height="60" viewBox="0 0 60 60" fill="none" xmlns="http://www.w3.org/2000/svg">
<path fill-rule="evenodd" clip-rule="evenodd" d="M26.25 35H28.75H31.25H33.75V37.5H31.25H28.75H26.25V35ZM26.25 37.5V40H23.75V37.5H26.25ZM33.75 37.5H36.25V40H33.75V37.5Z" fill="#131313"/>
<path fill-rule="evenodd" clip-rule="evenodd" d="M18.75 25H21.25H23.75H26.25V27.5V30H23.75V27.5H21.25H18.75V25Z" fill="#131313"/>
<path fill-rule="evenodd" clip-rule="evenodd" d="M36.25 25H33.75V27.5H36.25H38.75V30H41.25V27.5V25H38.75H36.25Z" fill="#131313"/>
<path fill-rule="evenodd" clip-rule="evenodd" d="M37.5 10H22.5V12.5H20H17.5V15H15V17.5H12.5L12.5 22.5H10V37.5H12.5V40V42.5H15V45H17.5V47.5H20H22.5V50H37.5V47.5H40H42.5V45H45V42.5H47.5V40V37.5H50V22.5H47.5V20V17.5H45V15H42.5V12.5H40H37.5V10ZM37.5 12.5V15H40H42.5V17.5H45V20V22.5H47.5V37.5H45V40V42.5H42.5V45H40H37.5V47.5H22.5L22.5 45H20H17.5V42.5H15V40V37.5H12.5L12.5 22.5H15V17.5H17.5V15H20H22.5L22.5 12.5H37.5Z" fill="#131313"/>
</svg>
