<svg width="60" height="60" viewBox="0 0 60 60" fill="none" xmlns="http://www.w3.org/2000/svg">
<path fill-rule="evenodd" clip-rule="evenodd" d="M27.5 36.25H30V38.75H27.5V36.25ZM30 36.25H32.5V38.75H30V36.25ZM32.5 36.25H35V38.75H32.5V36.25ZM37.5 38.75H35V41.25H37.5V38.75ZM27.5 38.75H25V41.25H27.5V38.75Z" fill="#1E1E1E"/>
<rect width="2.5" height="2.5" transform="matrix(-1 0 0 1 26.25 26.25)" fill="#1E1E1E"/>
<rect width="2.5" height="2.5" transform="matrix(-1 0 0 1 38.75 26.25)" fill="#1E1E1E"/>
<path fill-rule="evenodd" clip-rule="evenodd" d="M23.75 10H38.75V12.5H23.75V10ZM16.25 22.5H18.75V25V27.5H16.25V25H13.75V27.5H16.25V30H18.75L18.75 27.5L21.25 27.5V30L21.25 32.5V35H18.75V37.5H16.25V40V42.5H13.75V40V37.5H11.25V35H8.75V32.5V30V27.5L11.25 27.5V25V22.5H13.75H16.25ZM18.75 45H16.25V42.5H18.75V45ZM23.75 47.5H21.25H18.75V45H21.25H23.75L23.75 47.5ZM38.75 47.5V50H23.75V47.5H38.75ZM43.75 45H41.25H38.75V47.5H41.25H43.75V45ZM46.25 42.5H43.75V45H46.25V42.5ZM48.75 37.5V40V42.5H46.25V40V37.5H48.75ZM48.75 22.5H51.25V37.5H48.75V22.5ZM48.75 22.5H46.25V20H48.75V22.5ZM21.25 12.5H23.75V15H21.25H18.75V12.5H21.25ZM16.25 15L18.75 15V17.5H16.25V15ZM16.25 17.5V20V22.5H13.75V20V17.5H16.25ZM38.75 12.5H41.25H43.75V15H41.25H38.75V12.5ZM46.25 17.5L43.75 17.5V15L46.25 15V17.5ZM46.25 17.5H48.75V20H46.25V17.5Z" fill="#1E1E1E"/>
</svg>
